<?xml version="1.0" encoding="UTF-8" standalone="no"?><!DOCTYPE svg PUBLIC "-//W3C//DTD SVG 1.1//EN" "http://www.w3.org/Graphics/SVG/1.1/DTD/svg11.dtd"><svg width="100%" height="100%" viewBox="0 0 680 370" version="1.1" xmlns="http://www.w3.org/2000/svg" xmlns:xlink="http://www.w3.org/1999/xlink" xml:space="preserve" xmlns:serif="http://www.serif.com/" style="fill-rule:evenodd;clip-rule:evenodd;stroke-linejoin:round;stroke-miterlimit:2;"><rect id="Artboard-Logo" serif:id="Artboard Logo" x="-0" y="0" width="679.688" height="369.063" style="fill:none;"/><clipPath id="_clip1"><rect x="-0" y="0" width="679.688" height="369.063"/></clipPath><g clip-path="url(#_clip1)"><g id="Eine-Form-Weiße-Überlagerungen" serif:id="Eine Form Weiße Überlagerungen"><path d="M191.852,263.575c-1.509,0.94 -2.974,1.745 -4.085,2.347c-1.687,0.915 -3.602,1.38 -5.485,1.755c-2.106,0.419 -4.755,0.695 -7.152,0.759c-4.751,0.126 -16.603,0.126 -21.354,-0c-2.396,-0.064 -5.046,-0.34 -7.152,-0.759c-1.883,-0.375 -3.797,-0.84 -5.485,-1.755c-2.438,-1.322 -6.589,-3.623 -9.142,-6.176c-2.553,-2.553 -4.854,-6.704 -6.176,-9.142c-0.915,-1.688 -1.381,-3.603 -1.755,-5.485c-0.419,-2.107 -0.634,-4.758 -0.759,-7.152c-0.126,-2.422 0,-7.379 0,-7.379c0,0 -9.328,1.568 -20.166,1.568c-10.837,-0 -20.459,-1.647 -20.459,-1.647c0,-0 0.214,4.981 0,7.458c-0.26,3.02 -0.371,7.276 -1.564,10.666c-1.226,3.484 -3.346,7.431 -5.792,10.24c-2.425,2.784 -6.274,5.138 -8.885,6.613c-2.071,1.17 -4.448,1.751 -6.777,2.234c-2.371,0.491 -4.956,0.654 -7.45,0.716c-4.801,0.119 -16.604,0.126 -21.355,-0c-2.396,-0.064 -5.045,-0.34 -7.151,-0.759c-1.883,-0.375 -3.798,-0.84 -5.486,-1.755c-2.438,-1.322 -6.589,-3.623 -9.142,-6.176c-2.553,-2.553 -4.854,-6.704 -6.176,-9.142c-0.915,-1.688 -1.38,-3.603 -1.755,-5.485c-0.419,-2.107 -0.747,-4.755 -0.758,-7.152c-0.127,-27.277 -0.127,-129.234 -0,-156.511c0.011,-2.397 0.339,-5.045 0.758,-7.151c0.375,-1.883 0.84,-3.798 1.755,-5.486c1.322,-2.438 3.623,-6.589 6.176,-9.142c2.553,-2.553 6.704,-4.854 9.142,-6.176c1.688,-0.915 3.603,-1.38 5.486,-1.755c2.106,-0.419 4.754,-0.719 7.151,-0.758c7.659,-0.127 30.867,-0.212 38.802,-0c2.967,0.079 5.99,0.355 8.814,1.268c2.981,0.964 6.425,2.587 9.076,4.517c2.649,1.927 5.066,4.652 6.833,7.061c1.636,2.23 4.045,8.2 4.169,8.61c0.825,2.728 4.55,15.153 4.55,15.153c0,-0 3.931,-13.015 4.613,-15.216c0.205,-0.662 1.285,-4.372 3.045,-7.13c1.873,-2.937 5.105,-6.386 7.677,-8.478c2.266,-1.843 4.975,-3.188 7.757,-4.075c3.025,-0.964 6.885,-1.588 10.394,-1.71c6.895,-0.241 24.238,-0.165 34.036,-0.06c5.687,-28.859 31.154,-50.653 61.67,-50.653c30.528,0 56.002,21.81 61.677,50.685c8.872,-0.049 28.236,-0.133 34.283,0.028c2.967,0.079 5.989,0.355 8.814,1.268c2.981,0.964 6.425,2.587 9.076,4.517c2.648,1.927 5.066,4.652 6.833,7.061c1.636,2.23 4.045,8.2 4.169,8.61c0.825,2.728 4.55,15.153 4.55,15.153c0,-0 3.93,-13.015 4.612,-15.216c0.206,-0.662 1.286,-4.372 3.045,-7.13c1.874,-2.937 5.106,-6.386 7.678,-8.478c2.266,-1.843 4.974,-3.188 7.757,-4.075c3.025,-0.964 6.884,-1.588 10.393,-1.71c6.202,-0.217 25.257,-0.104 34.032,-0.038c5.679,-28.87 31.15,-50.675 61.675,-50.675c32.366,0 59.051,24.517 62.483,55.976c8.475,-3.413 18.299,-5.263 29.571,-5.263l28.385,-0c21.157,-0 37.313,6.658 49.112,18.185c11.94,11.666 18.857,27.852 18.857,49.263c-0,-0 0.128,8.993 -0,12.239c-0.096,2.424 -0.344,5.109 -0.767,7.237c-0.377,1.899 -0.847,3.831 -1.77,5.533c-1.331,2.456 -3.647,6.634 -6.218,9.205c-2.57,2.57 -7.23,5.04 -9.204,6.217c-0.794,0.473 -2.64,0.845 -2.64,0.845c0,-0 1.846,0.371 2.64,0.844c1.974,1.177 6.634,3.647 9.204,6.217c2.571,2.571 4.887,6.749 6.218,9.205c0.923,1.703 1.393,3.634 1.77,5.533c0.423,2.128 0.671,4.813 0.767,7.237c0.128,3.246 -0,12.24 -0,12.24c-0,21.41 -6.917,37.596 -18.857,49.262c-11.799,11.528 -27.955,18.186 -49.112,18.186l-28.385,-0c-21.407,-0 -37.588,-6.673 -49.24,-18.054c-0.905,-0.884 -1.782,-1.797 -2.63,-2.737c-0.291,1.026 -0.66,2.027 -1.165,2.959c-1.322,2.438 -3.623,6.589 -6.176,9.142c-0.278,0.278 -0.574,0.553 -0.886,0.824c0.503,0.674 0.982,1.359 1.434,2.049c1.679,2.567 3.067,5.439 4.126,8.226c1.039,2.737 1.745,5.695 2.225,8.497c0.468,2.739 0.542,6.556 0.65,8.312c0.046,0.741 0.038,1.486 0,2.227c-0.055,1.073 -0.101,2.821 -0.329,4.21c-0.332,2.025 -2.6,7.944 -2.6,7.944c0,-0 2.104,4.039 2.594,6.236c0.706,3.17 1.254,9.597 1.411,12.313c0.077,1.326 0.07,2.658 -0,3.984c-0.109,2.05 -0.182,5.573 -0.651,8.313c-0.479,2.801 -1.185,5.76 -2.224,8.497c-1.059,2.787 -2.447,5.658 -4.127,8.225c-1.681,2.571 -3.755,5.069 -5.962,7.197c-2.2,2.12 -4.714,4.009 -7.282,5.569c-2.553,1.551 -5.233,3.033 -8.124,3.787c-4.099,1.07 -11.555,2.193 -16.472,2.631c-4.326,0.386 -8.703,0.386 -13.029,0c-4.917,-0.438 -12.373,-1.561 -16.473,-2.631c-1.174,-0.306 -2.313,-0.733 -3.424,-1.235c-0.961,0.581 -1.959,1.094 -2.979,1.518c-3.287,1.365 -7.464,2.169 -11.31,2.348c-8.4,0.392 -30.745,0.362 -39.087,0c-3.722,-0.162 -7.733,-0.879 -10.964,-2.173c-1.816,-0.728 -3.563,-1.707 -5.173,-2.859c-1.609,1.152 -3.356,2.131 -5.172,2.859c-3.231,1.294 -7.463,1.811 -10.964,2.173c-3.329,0.345 -6.71,0.325 -10.041,0c-3.448,-0.336 -7.471,-0.791 -10.647,-2.018c-3.098,-1.197 -6.002,-3.054 -8.407,-5.343c-1.79,-1.704 -3.545,-4.275 -4.865,-6.413c-1.253,2.228 -2.876,4.284 -4.629,6.011c-2.371,2.336 -5.292,4.337 -8.42,5.59c-3.23,1.294 -7.443,1.811 -10.964,2.173c-3.369,0.347 -6.791,0.347 -10.16,0c-3.521,-0.362 -7.734,-0.879 -10.964,-2.173c-3.128,-1.253 -6.049,-3.254 -8.421,-5.59c-0.93,-0.917 -1.824,-1.927 -2.645,-3.005c-1.906,1.681 -4.002,3.189 -6.121,4.467c-2.549,1.538 -5.229,2.995 -8.111,3.738c-4.074,1.05 -10.83,2.258 -16.332,2.563c-7.702,0.427 -23.075,0.362 -29.883,0c-3.72,-0.198 -7.733,-0.879 -10.964,-2.173c-3.127,-1.253 -6.049,-3.254 -8.42,-5.59c-2.371,-2.337 -4.506,-5.275 -5.807,-8.429c-1.354,-3.283 -2.21,-7.435 -2.319,-11.269c-0.386,-13.616 -0.386,-56.813 0,-70.43c0.069,-2.412 0.433,-4.952 1.032,-7.321Z"/><g transform="matrix(1,0,0,0.980392,0,-12.6984)"><g transform="matrix(119.531,0,0,119.531,513.214,363.615)"></g><text x="208.051px" y="363.615px" style="font-family:'Rajdhani-Bold', 'Rajdhani';font-weight:700;font-size:119.531px;fill:#fff;">B<tspan x="274.988px 337.383px 390.933px 448.787px " y="363.615px 363.615px 363.615px 363.615px ">YTES</tspan></text></g><g transform="matrix(260.417,0,0,260.417,665.755,243.436)"></g><text x="8.464px" y="243.436px" style="font-family:'Rajdhani-Bold', 'Rajdhani';font-weight:700;font-size:260.417px;fill:#fff;">MIMIC</text><circle cx="490.889" cy="63.132" r="37.856" style="fill:#fff;"/><path d="M490.889,21.109c23.193,-0 42.022,18.83 42.022,42.023c0,23.193 -18.829,42.022 -42.022,42.022c-23.193,0 -42.023,-18.829 -42.023,-42.022c-0,-23.193 18.83,-42.023 42.023,-42.023Zm-0,4.166c-20.894,0 -37.857,16.963 -37.857,37.857c0,20.893 16.963,37.856 37.857,37.856c20.893,-0 37.856,-16.963 37.856,-37.856c-0,-20.894 -16.963,-37.857 -37.856,-37.857Z"/><circle cx="232.295" cy="63.132" r="37.856" style="fill:#fff;"/><path d="M232.295,21.109c23.193,-0 42.023,18.83 42.023,42.023c-0,23.193 -18.83,42.022 -42.023,42.022c-23.193,0 -42.023,-18.829 -42.023,-42.022c0,-23.193 18.83,-42.023 42.023,-42.023Zm0,4.166c-20.893,0 -37.856,16.963 -37.856,37.857c0,20.893 16.963,37.856 37.856,37.856c20.893,-0 37.856,-16.963 37.856,-37.856c0,-20.894 -16.963,-37.857 -37.856,-37.857Z"/></g></g></svg>